<svg width="404" height="250" viewBox="0 0 404 250" fill="none" xmlns="http://www.w3.org/2000/svg">
<path d="M84.4905 146.076L110.648 109.045V103.062H73.3533V111.624H98.3867L72.3315 148.654V154.637H111.669V146.076H84.4905Z" fill="#00072B"/>
<path d="M125.305 132.976H168.117C168.321 131.635 168.423 130.294 168.423 128.953C168.423 114.512 158.41 101.721 142.981 101.721C127.042 101.721 116.212 113.584 116.212 128.85C116.212 144.322 127.144 155.978 143.594 155.978C153.812 155.978 161.577 151.336 166.073 144.322L158.512 139.99C155.958 144.219 150.849 147.52 143.799 147.52C134.297 147.52 127.042 142.259 125.305 132.976ZM142.981 110.18C150.645 110.18 157.899 114.925 159.432 125.136H125.305C126.735 116.162 133.377 110.18 142.981 110.18Z" fill="#00072B"/>
<path d="M204.083 101.721C196.931 101.721 191.311 104.403 187.531 110.489V103.062H178.642V154.637H187.531V127.303C187.531 115.131 194.172 110.283 202.346 110.283C210.214 110.283 215.016 115.028 215.016 123.486V154.637H223.905V122.97C223.905 109.767 216.038 101.721 204.083 101.721Z" fill="#00072B"/>
<path d="M243.978 116.988C243.978 112.346 248.474 110.077 253.072 110.077C257.567 110.077 262.063 112.036 264.005 116.678L271.464 112.449C268.194 105.744 261.45 101.721 253.072 101.721C242.752 101.721 234.987 108.014 234.987 117.091C234.987 135.761 263.596 129.469 263.596 140.506C263.596 145.56 258.896 147.52 253.48 147.52C247.146 147.52 242.446 144.425 240.811 139.474L233.147 143.91C236.111 151.027 243.263 155.978 253.48 155.978C264.413 155.978 272.587 150.099 272.587 140.506C272.587 121.526 243.978 128.025 243.978 116.988Z" fill="#00072B"/>
<path d="M305.727 155.978C320.644 155.978 332.701 144.116 332.701 128.85C332.701 113.584 320.644 101.721 305.727 101.721C290.809 101.721 278.854 113.584 278.854 128.85C278.854 144.116 290.809 155.978 305.727 155.978ZM305.727 147.21C295.612 147.21 287.744 139.268 287.744 128.85C287.744 118.432 295.612 110.489 305.727 110.489C315.944 110.489 323.812 118.432 323.812 128.85C323.812 139.268 315.944 147.21 305.727 147.21Z" fill="#00072B"/>
<path d="M367.544 89.7561V81.0916C352.933 80.0601 345.167 87.7963 345.167 101.515V103.062H336.993V111.727H345.167V154.637H354.057V111.727H367.544V103.062H354.057V101.515C354.057 92.5412 358.654 89.0341 367.544 89.7561Z" fill="#00072B"/>
<path d="M404 111.727V103.063H390.411V88.6216L381.521 91.3035V103.063H371.406V111.727H381.521V139.681C381.521 152.574 388.673 156.7 404 154.637V146.592C394.906 147.004 390.411 147.52 390.411 139.681V111.727H404Z" fill="#00072B"/>
<path fill-rule="evenodd" clip-rule="evenodd" d="M30.8734 101.747L46.31 128.192L61.7467 154.673H30.8734H0L15.4367 128.192L30.8734 101.747Z" fill="#0468E7"/>
</svg>
